<svg width="14" height="14" viewBox="0 0 14 14" fill="none" xmlns="http://www.w3.org/2000/svg">
<path d="M13.8821 11.6617C13.724 11.501 13.4662 11.4982 13.3045 11.6547C13.3045 11.6547 13.304 11.655 13.3032 11.6557L13.302 11.6546L13.3044 11.6523C13.303 11.6536 13.2545 11.6991 13.1521 11.7734V5.38457C13.1521 5.15806 12.9685 4.97442 12.742 4.97442C12.5155 4.97442 12.3318 5.15806 12.3318 5.38457V5.79004C10.8676 5.75677 10.1135 5.54603 9.38283 5.34156C8.70821 5.15275 8.07103 4.97442 6.99988 4.97442C5.92873 4.97442 5.29152 5.15275 4.61693 5.34156C3.88626 5.54606 3.13221 5.75679 1.66792 5.79004V3.74397C1.66792 2.27218 2.33876 1.26997 3.55688 0.921912C4.68816 0.598714 5.88156 1.0679 6.49709 2.04477C6.34788 2.11849 6.22133 2.19756 6.11781 2.28189L5.64931 1.81333C5.48916 1.65316 5.22945 1.65316 5.06927 1.81333C4.90909 1.97351 4.90909 2.23319 5.06927 2.39337L5.59957 2.92367L5.06927 3.45396C4.90909 3.61414 4.90909 3.87382 5.06927 4.034C5.22942 4.19415 5.48913 4.19418 5.64931 4.034L6.11786 3.56547C6.25953 3.68086 6.44407 3.78651 6.67121 3.88191C7.05902 4.04474 7.52074 4.15417 7.82021 4.15417C8.49868 4.15417 9.05066 3.60219 9.05066 2.92372C9.05066 2.24525 8.49868 1.69327 7.82021 1.69327C7.67228 1.69327 7.4847 1.72004 7.28605 1.76671C6.51106 0.376303 4.87691 -0.30832 3.33157 0.133165C1.75301 0.584194 0.847645 1.90029 0.847645 3.74397V11.7734C0.745326 11.699 0.696764 11.6536 0.695397 11.6522L0.697749 11.6545L0.696628 11.6557C0.696409 11.6555 0.695425 11.6545 0.695425 11.6545C0.533771 11.498 0.275813 11.5009 0.117741 11.6616C-0.0410967 11.8231 -0.0389639 12.0828 0.122553 12.2417C0.158209 12.2771 0.623484 12.7201 1.7079 13.1507C2.79225 13.5818 4.49364 14.0002 6.99991 14C9.50617 14.0002 11.2076 13.5818 12.2919 13.1507C13.3763 12.7201 13.8416 12.2771 13.8773 12.2417C14.0388 12.0828 14.0409 11.8232 13.8821 11.6617ZM7.09615 2.67938C7.38919 2.5705 7.68223 2.51351 7.82021 2.51351C8.04636 2.51351 8.23036 2.69751 8.23036 2.92367C8.23036 3.14982 8.04636 3.33382 7.82021 3.33382C7.68223 3.33382 7.38919 3.27683 7.09615 3.16795C6.84197 3.07348 6.69875 2.98163 6.62959 2.92367C6.69875 2.8657 6.84197 2.77385 7.09615 2.67938ZM1.66795 6.61043C3.25012 6.57556 4.09043 6.34074 4.83803 6.13148C5.48374 5.95077 6.04138 5.79472 6.99991 5.79472C7.95843 5.79472 8.51607 5.9508 9.16178 6.13148C9.90938 6.34071 10.7497 6.57554 12.3319 6.61043V10.7165H1.66795V6.61043ZM1.66795 11.5368H12.3319V12.2396C10.772 12.9562 8.73058 13.1774 6.99991 13.1774C5.26934 13.1774 3.22783 12.9562 1.66795 12.2396V11.5368Z" fill="#686868"/>
<path d="M3.71839 9.89624C3.9449 9.89624 4.12854 9.7126 4.12854 9.48609V7.84548C4.12854 7.61897 3.9449 7.43533 3.71839 7.43533C3.49188 7.43533 3.30824 7.61897 3.30824 7.84548V9.48609C3.30824 9.7126 3.49188 9.89624 3.71839 9.89624Z" fill="#686868"/>
<path d="M5.35898 9.89624C5.58549 9.89624 5.76913 9.7126 5.76913 9.48609V7.84548C5.76913 7.61897 5.58549 7.43533 5.35898 7.43533C5.13247 7.43533 4.94883 7.61897 4.94883 7.84548V9.48609C4.94883 9.7126 5.13247 9.89624 5.35898 9.89624Z" fill="#686868"/>
<path d="M6.99959 9.89624C7.2261 9.89624 7.40974 9.7126 7.40974 9.48609V7.84548C7.40974 7.61897 7.2261 7.43533 6.99959 7.43533C6.77308 7.43533 6.58944 7.61897 6.58944 7.84548V9.48609C6.58944 9.7126 6.77308 9.89624 6.99959 9.89624Z" fill="#686868"/>
<path d="M8.6402 9.89624C8.86671 9.89624 9.05035 9.7126 9.05035 9.48609V7.84548C9.05035 7.61897 8.86671 7.43533 8.6402 7.43533C8.41369 7.43533 8.23005 7.61897 8.23005 7.84548V9.48609C8.23005 9.7126 8.41369 9.89624 8.6402 9.89624Z" fill="#686868"/>
<path d="M10.2808 9.89624C10.5073 9.89624 10.6909 9.7126 10.6909 9.48609V7.84548C10.6909 7.61897 10.5073 7.43533 10.2808 7.43533C10.0543 7.43533 9.87063 7.61897 9.87063 7.84548V9.48609C9.87063 9.7126 10.0543 9.89624 10.2808 9.89624Z" fill="#686868"/>
</svg>
