<svg width="20" height="14" viewBox="0 0 20 14" fill="none" xmlns="http://www.w3.org/2000/svg">
<path d="M18.766 10.1277H17.8723V8.34043H18.4681C18.6326 8.34035 18.7659 8.20694 18.7658 8.0424C18.7658 8.0261 18.7645 8.00979 18.7618 7.9937L18.4639 6.20647C18.44 6.06282 18.3158 5.95752 18.1702 5.95745H16.9787C16.8331 5.95752 16.7089 6.06282 16.685 6.20647L16.3871 7.9937C16.3602 8.15597 16.4698 8.30941 16.6321 8.3364C16.6482 8.33908 16.6645 8.34043 16.6809 8.34043H17.2766V10.1277H16.0851C16.0751 10.129 16.0651 10.131 16.0553 10.1336C15.9155 9.43816 15.3051 8.9374 14.5957 8.93617H14V8.04255C14 7.54902 13.5999 7.14894 13.1064 7.14894H10.7234C10.2299 7.14894 9.82979 7.54902 9.82979 8.04255V8.93617H9.23404V8.04255C9.23404 7.54902 8.83396 7.14894 8.34043 7.14894H5.95745C5.46391 7.14894 5.06383 7.54902 5.06383 8.04255V8.93617H4.46808C3.7587 8.9374 3.14836 9.43816 3.00851 10.1336C2.99872 10.131 2.98878 10.129 2.97872 10.1277H1.78723V8.34043H2.38298C2.54748 8.34035 2.68078 8.20694 2.6807 8.0424C2.6807 8.0261 2.67936 8.00979 2.67668 7.9937L2.37881 6.20647C2.35494 6.06282 2.23073 5.95752 2.08511 5.95745H0.893617C0.747995 5.95752 0.623782 6.06282 0.599915 6.20647L0.302043 7.9937C0.275048 8.15597 0.384739 8.30941 0.547043 8.3364C0.563128 8.33908 0.579436 8.34043 0.595745 8.34043H1.19149V10.1277H0.297872C0.133372 10.1277 0 10.261 0 10.4255V13.7021C0 13.8666 0.133372 14 0.297872 14H18.766C18.9305 14 19.0638 13.8666 19.0638 13.7021V10.4255C19.0638 10.261 18.9305 10.1277 18.766 10.1277ZM0.947532 7.74468L1.14591 6.55319H1.83281L2.03119 7.74468H0.947532ZM2.68085 13.4043H0.595745V10.7234H2.68085V13.4043ZM10.4255 8.04255C10.4255 7.87805 10.5589 7.74468 10.7234 7.74468H13.1064C13.2709 7.74468 13.4043 7.87805 13.4043 8.04255V8.93617H10.4255V8.04255ZM5.65957 8.04255C5.65957 7.87805 5.79295 7.74468 5.95745 7.74468H8.34043C8.50493 7.74468 8.6383 7.87805 8.6383 8.04255V8.93617H5.65957V8.04255ZM15.4894 13.4043H3.57447V12.5106H15.4894V13.4043ZM15.4894 11.9149H3.57447V10.4255C3.57447 9.93199 3.97455 9.53191 4.46808 9.53191H14.5957C15.0893 9.53191 15.4894 9.93199 15.4894 10.4255V11.9149ZM17.0326 7.74468L17.231 6.55319H17.9179L18.1163 7.74468H17.0326ZM18.4681 13.4043H16.383V10.7234H18.4681V13.4043Z" fill="#686868"/>
<path d="M5.95745 5.3617H12.5106C12.6751 5.3617 12.8085 5.22833 12.8085 5.06383V0.297872C12.8085 0.133372 12.6751 0 12.5106 0H5.95745C5.79295 0 5.65957 0.133372 5.65957 0.297872V5.06383C5.65957 5.22833 5.79295 5.3617 5.95745 5.3617ZM6.25532 0.595745H12.2128V3.61855L11.5518 2.79255C11.499 2.72631 11.4204 2.68569 11.3358 2.68085C11.2513 2.67713 11.1691 2.70848 11.1086 2.76753L10.1277 3.74902L8.25315 1.87451C8.14312 1.76463 7.96704 1.75789 7.84894 1.85902L6.25532 3.22506V0.595745ZM6.25532 4.00906L8.02677 2.48991L9.91706 4.37992C10.0334 4.4962 10.2219 4.4962 10.3383 4.37992L11.2944 3.42374L12.2128 4.57294V4.76596H6.25532V4.00906Z" fill="#686868"/>
<path d="M10.4255 2.68085C10.9191 2.68085 11.3191 2.28077 11.3191 1.78723C11.3191 1.2937 10.9191 0.893617 10.4255 0.893617C9.93199 0.893617 9.53191 1.2937 9.53191 1.78723C9.53191 2.28077 9.93199 2.68085 10.4255 2.68085ZM10.4255 1.48936C10.59 1.48936 10.7234 1.62273 10.7234 1.78723C10.7234 1.95173 10.59 2.08511 10.4255 2.08511C10.261 2.08511 10.1277 1.95173 10.1277 1.78723C10.1277 1.62273 10.261 1.48936 10.4255 1.48936Z" fill="#686868"/>
</svg>
