<svg width="14" height="14" viewBox="0 0 14 14" fill="none" xmlns="http://www.w3.org/2000/svg">
<path d="M13.5898 6.61719H12.959C13.0991 6.37566 13.1797 6.09561 13.1797 5.79688V4.56641C13.1797 4.33989 12.996 4.15625 12.7695 4.15625H11.9928C12.2291 3.05542 13.3496 2.45224 13.3689 2.44204C13.5694 2.33778 13.6479 2.09079 13.544 1.88986C13.4401 1.68861 13.1926 1.60975 12.9914 1.71374C12.9511 1.73458 12.43 2.0099 11.9492 2.5425V1.25781C11.9492 1.0313 11.7656 0.847656 11.5391 0.847656C11.3125 0.847656 11.1289 1.0313 11.1289 1.25781V2.5425C10.6481 2.0099 10.127 1.73458 10.0867 1.71374C9.88545 1.6097 9.63804 1.68864 9.53405 1.88986C9.43007 2.09111 9.50893 2.33855 9.71015 2.44251C9.72286 2.44907 10.8503 3.04454 11.0859 4.15625H10.3086C10.0821 4.15625 9.89844 4.33989 9.89844 4.56641V5.79688C9.89844 6.09561 9.97907 6.37566 10.1192 6.61719H6.43316L6.02301 5.79688H7.84766C8.07417 5.79688 8.25781 5.61323 8.25781 5.38672V0.410156C8.25781 0.183641 8.07417 0 7.84766 0H1.23047C1.00395 0 0.820312 0.183641 0.820312 0.410156V5.38672C0.820312 5.61323 1.00395 5.79688 1.23047 5.79688H3.05512L2.64496 6.61719H0.410156C0.183641 6.61719 0 6.80083 0 7.02734C0 7.25386 0.183641 7.4375 0.410156 7.4375H0.820312V13.5898C0.820312 13.8164 1.00395 14 1.23047 14C1.45698 14 1.64062 13.8164 1.64062 13.5898V12.3594H7.4375V13.5898C7.4375 13.8164 7.62114 14 7.84766 14H12.7695C12.996 14 13.1797 13.8164 13.1797 13.5898V7.4375H13.5898C13.8164 7.4375 14 7.25386 14 7.02734C14 6.80083 13.8164 6.61719 13.5898 6.61719ZM10.7188 5.79688V4.97656H12.3594V5.79688C12.3594 6.2492 11.9914 6.61719 11.5391 6.61719C11.0867 6.61719 10.7188 6.2492 10.7188 5.79688ZM1.64062 0.820312H7.4375V4.97656H1.64062V0.820312ZM3.97223 5.79688H5.1059L5.51605 6.61719H3.56207L3.97223 5.79688ZM1.64062 11.5391V7.4375H7.4375V11.5391H1.64062ZM8.25781 10.7188H12.3594V13.1797H8.25781V10.7188ZM12.3594 9.89844H8.25781V7.4375H12.3594V9.89844Z" fill="#686868"/>
<path d="M10.3086 9.07812C10.5351 9.07812 10.7188 8.89449 10.7188 8.66797C10.7188 8.44145 10.5351 8.25781 10.3086 8.25781C10.0821 8.25781 9.89844 8.44145 9.89844 8.66797C9.89844 8.89449 10.0821 9.07812 10.3086 9.07812Z" fill="#686868"/>
<path d="M10.3086 12.3594C10.5351 12.3594 10.7188 12.1757 10.7188 11.9492C10.7188 11.7227 10.5351 11.5391 10.3086 11.5391C10.0821 11.5391 9.89844 11.7227 9.89844 11.9492C9.89844 12.1757 10.0821 12.3594 10.3086 12.3594Z" fill="#686868"/>
</svg>
