<svg width="18" height="14" viewBox="0 0 18 14" fill="none" xmlns="http://www.w3.org/2000/svg">
<path d="M17.6432 7.9694C17.6432 7.38579 17.3239 6.85997 16.8098 6.59712C16.2856 6.32902 15.6068 6.19308 14.7923 6.19308H5.93884C5.87509 5.87495 5.73384 5.58591 5.52195 5.35038L4.26642 3.95467C3.95573 3.60928 3.50928 3.39956 3.00934 3.3642L2.7838 3.34825C2.66833 3.33994 2.551 3.35624 2.43838 3.39401V2.6562C2.43838 2.39776 2.32953 2.16436 2.15551 1.99899C2.33197 1.78748 2.43838 1.51552 2.43838 1.21917C2.43838 0.546905 1.89144 0 1.21921 0C0.546974 0 0 0.54694 0 1.21921C0 1.51559 0.106411 1.78751 0.282877 1.99903C0.108857 2.16443 0 2.39779 0 2.65624V13.6554C0 13.8457 0.154275 14 0.344594 14H1.53396C1.7117 14 1.86029 13.8648 1.87704 13.6878C1.91808 13.2538 2.14755 12.0621 2.71606 11.5277H3.63878C3.8291 11.5277 3.98337 11.3734 3.98337 11.1831C3.98337 10.9928 3.8291 10.8385 3.63878 10.8385L0.689154 10.8385V7.80478L5.28866 7.80468V8.70266C5.28866 9.23395 5.72088 9.66621 6.25221 9.66621H16.6797C16.7722 9.66621 16.8653 9.65277 16.954 9.62644V10.8385H15.0551C15.0548 10.8385 15.0545 10.8385 15.0542 10.8385H6.67086C6.48054 10.8385 6.32627 10.9928 6.32627 11.1831C6.32627 11.3734 6.48054 11.5277 6.67086 11.5277H14.9272C15.4934 12.0607 15.7244 13.2535 15.7662 13.6878C15.783 13.8648 15.9315 14 16.1093 14H17.2986C17.4889 14 17.6432 13.8457 17.6432 13.6554V7.9694ZM2.43921 4.52073C2.44434 4.3739 2.42422 4.22217 2.54521 4.11421C2.66692 4.0056 2.81292 4.04119 2.96068 4.05167C3.28626 4.07472 3.56059 4.20053 3.75401 4.4156L5.00954 5.81134C5.21306 6.03753 5.31068 6.35284 5.28439 6.69905C5.27429 6.83234 5.2767 6.9505 5.16436 7.04454C5.06171 7.13048 4.9503 7.11446 4.82673 7.11077C4.47966 7.10036 4.17645 6.97004 3.97293 6.74381L2.7174 5.3481C2.51433 5.12229 2.42873 4.82053 2.43921 4.52073ZM0.689188 7.11556V2.65624C0.689188 2.53611 0.786915 2.43838 0.907041 2.43838H1.53127C1.6514 2.43838 1.74913 2.53611 1.74913 2.65624V7.11552L0.689188 7.11556ZM2.43835 6.0683L3.3804 7.11556H2.43835V6.0683ZM1.21917 0.689223C1.51139 0.689223 1.74916 0.926958 1.74916 1.21921C1.74916 1.51146 1.51142 1.74919 1.21917 1.74919C0.926924 1.74919 0.689188 1.51146 0.689188 1.21921C0.689188 0.926958 0.926924 0.689223 1.21917 0.689223ZM1.23372 13.3108H0.689188V11.5277H1.84468C1.47176 12.1382 1.30312 12.8934 1.23372 13.3108ZM6.25225 8.97706C6.10101 8.97706 5.97795 8.854 5.97795 8.70276L5.97781 6.88227H14.7923C15.4966 6.88227 16.0698 6.99278 16.496 7.2107C16.7785 7.35516 16.954 7.64586 16.954 7.9694V8.70145C16.954 8.7019 16.954 8.70235 16.954 8.7028C16.954 8.85404 16.8309 8.97709 16.6797 8.97709L6.25225 8.97706ZM16.4095 13.3108C16.3401 12.8934 16.1715 12.1382 15.7986 11.5277H16.954V13.3108H16.4095Z" fill="#686868"/>
<path d="M5.47316 11.0514C5.40186 10.8776 5.19611 10.7935 5.02312 10.865C4.84951 10.9367 4.76484 11.1415 4.83669 11.315C4.9085 11.4885 5.1133 11.5733 5.28673 11.5015C5.45983 11.4297 5.54522 11.2245 5.47316 11.0514Z" fill="#686868"/>
</svg>
