<svg width="18" height="18" viewBox="0 0 18 18" fill="none" xmlns="http://www.w3.org/2000/svg">
<circle cx="9" cy="9" r="9" fill="#F0F0F0"/>
<path fill-rule="evenodd" clip-rule="evenodd" d="M7.95901 9.70711C8.34954 9.31658 8.34954 8.68342 7.95901 8.29289L6.16694 6.50082C6.07474 6.40862 6.07474 6.25914 6.16694 6.16694C6.25914 6.07474 6.40862 6.07474 6.50082 6.16694L8.29289 7.95901C8.68342 8.34954 9.31658 8.34954 9.70711 7.95901L11.4992 6.16694C11.5914 6.07474 11.7409 6.07474 11.8331 6.16694C11.9253 6.25914 11.9253 6.40862 11.8331 6.50082L10.041 8.29289C9.65046 8.68342 9.65046 9.31658 10.041 9.70711L11.8331 11.4992C11.9253 11.5914 11.9253 11.7409 11.8331 11.8331C11.7409 11.9253 11.5914 11.9253 11.4992 11.8331L9.70711 10.041C9.31658 9.65046 8.68342 9.65046 8.29289 10.041L6.50082 11.8331C6.40862 11.9253 6.25914 11.9253 6.16694 11.8331C6.07474 11.7409 6.07474 11.5914 6.16694 11.4992L7.95901 9.70711Z" fill="#BFBFBF" stroke="#BFBFBF"/>
</svg>
