<svg width="14" height="14" viewBox="0 0 14 14" fill="none" xmlns="http://www.w3.org/2000/svg">
<path d="M13.5352 0H0.410156C0.183641 0 0 0.183641 0 0.410156C0 0.636672 0.183641 0.820312 0.410156 0.820312H0.4375V13.5898C0.4375 13.8164 0.621141 14 0.847656 14C1.07417 14 1.25781 13.8164 1.25781 13.5898V13.3438H12.6875V13.5898C12.6875 13.8164 12.8711 14 13.0977 14C13.3242 14 13.5078 13.8164 13.5078 13.5898V0.820312H13.5352C13.7617 0.820312 13.9453 0.636672 13.9453 0.410156C13.9453 0.183641 13.7617 0 13.5352 0ZM7.38281 8.50391H12.6875V10.0898H7.38281V8.50391ZM12.6875 7.68359H7.38281V6.09766H12.6875V7.68359ZM6.5625 12.5234H4.32031V0.820312H6.5625V12.5234ZM1.25781 0.820312H3.5V12.5234H1.25781V0.820312ZM7.38281 12.5234V10.9102H12.6875V12.5234H7.38281ZM12.6875 5.27734H7.38281V0.820312H12.6875V5.27734Z" fill="#686868"/>
<path d="M5.44141 7.41016C5.66793 7.41016 5.85156 7.22652 5.85156 7C5.85156 6.77348 5.66793 6.58984 5.44141 6.58984C5.21488 6.58984 5.03125 6.77348 5.03125 7C5.03125 7.22652 5.21488 7.41016 5.44141 7.41016Z" fill="#686868"/>
<path d="M2.37891 7.41018C2.60543 7.41018 2.78906 7.22655 2.78906 7.00003C2.78906 6.7735 2.60543 6.58987 2.37891 6.58987C2.15238 6.58987 1.96875 6.7735 1.96875 7.00003C1.96875 7.22655 2.15238 7.41018 2.37891 7.41018Z" fill="#686868"/>
</svg>
